# xmcd
#
# Track frame offsets: 
#        150
#        14249
#        28312
#        41495
#        53646
#        68350
#        82257
#        95086
#        108916
#        121555
#        133926
#        146952
#        161250
#        174472
#        186936
#        200386
#        214846
#        227757
#        240725
#        254356
#        267556
#        280314
#        294416
#        306878
#        319488
#
# Disc length: 4432 seconds
#
# Revision: 1
# Processed by: cddbd v1.5.2PL0 Copyright (c) Steve Scherf et al.
# Submitted via: ExactAudioCopyFreeDBPlugin 1.0
#
DISCID=7f114e19
DTITLE=Various Artist - The History Of Rhythm And Blues 1942-1952
DYEAR=2009
DGENRE=Blues
TTITLE0=Lucky Millinder - Little John Special
TTITLE1=Ella Johnson With Buddy Johnson - That's The Stuff You Got To 
TTITLE1=Watch
TTITLE2=Dinah Washington - Evil Gal Blues
TTITLE3=Private Cecil Gant - I Wonder
TTITLE4=Charles Brown With Johnny Moore's Three Blazers - Driftin' Blu
TTITLE4=es
TTITLE5=T-Bone Walker - T-Bone Boogie
TTITLE6=The 5 Red Caps - Boogie Woogie On A Saturday Night
TTITLE7=The Four Blues - The Blues Can Jump
TTITLE8=Helen Humes - Be-Baba-Leba
TTITLE9=Louis Jordan - Caldonia
TTITLE10=Roy Milton And His Solid Senders - Milton's Boogie
TTITLE11=Joe Liggins - The Honeydripper
TTITLE12=Wynonie Harris With Lucky Millinder - Who Threw The Whiskey I
TTITLE12=n The Well
TTITLE13=Sister Rosetta Tharpe - Strange Things Happening Every Day
TTITLE14=Clyde Hart's All Stars - That's The Blues
TTITLE15=Big Joe Turner - My Gal's A Jockey
TTITLE16=Ella Mae Morse With Freddie Slack - House of Blue Lights
TTITLE17=Louis Jordan - Ain't That Just Like A Woman
TTITLE18=Nellie Lutcher - He's A Real Gone Guy
TTITLE19=Julia Lee And Her Boy Friends - Snatch And Grab It
TTITLE20=Amos Milburn - Chicken Shack Boogie
TTITLE21=King Cole Trio - (Get Your Kicks On) Route 66
TTITLE22=Walter Davis - Please Remember Me
TTITLE23=Henry "Red" Allen - Get The Mop
TTITLE24=Babs' Three Bips and A Bop - Ooh Pa Pa Dah
EXTD=
EXTT0=
EXTT1=
EXTT2=
EXTT3=
EXTT4=
EXTT5=
EXTT6=
EXTT7=
EXTT8=
EXTT9=
EXTT10=
EXTT11=
EXTT12=
EXTT13=
EXTT14=
EXTT15=
EXTT16=
EXTT17=
EXTT18=
EXTT19=
EXTT20=
EXTT21=
EXTT22=
EXTT23=
EXTT24=
PLAYORDER=
